<svg width="692" height="83" viewBox="0 0 692 83" fill="none" xmlns="http://www.w3.org/2000/svg">
<path d="M219.183 81.6059H197.093L226.961 1.31396H250.886L219.183 81.6059Z" fill="#CBCBC5"/>
<path d="M193.332 81.6059H215.423L185.555 1.31396H161.629L193.332 81.6059Z" fill="#CBCBC5"/>
<path d="M76.6622 81.6044H51.8905L0 1.31258H24.7717L76.6622 81.6044Z" fill="#CBCBC5"/>
<path d="M76.6622 81.6044H54.9749L54.9755 1.31258H76.6622V81.6044Z" fill="#CBCBC5"/>
<path d="M21.6875 81.6051H0L0.000958784 1.31351H21.6875V81.6051Z" fill="#CBCBC5"/>
<path d="M566.239 81.6042H518.223L518.225 60.9458H566.239V81.6042Z" fill="#CBCBC5"/>
<path d="M528.263 81.6044H504.966L536.706 0.378983H560.189L528.263 81.6044Z" fill="#CBCBC5"/>
<path d="M691.639 81.6042H669.951L669.952 60.9458H691.639V81.6042Z" fill="#CBCBC5"/>
<path d="M125.255 0.000168401C148.188 0.0643587 166.976 18.4178 166.976 41.466C166.976 64.5142 148.188 82.8676 125.255 82.9318C102.217 82.9961 83.2557 64.6356 83.2557 41.466C83.2558 18.2964 102.217 -0.0641374 125.255 0.000168401ZM125.116 18.8849C112.285 18.8849 102.529 28.8401 102.529 41.466C102.529 54.0919 112.285 64.047 125.116 64.047L125.416 64.0451C138.099 63.8912 147.702 53.9932 147.702 41.466C147.702 28.9388 138.099 19.0408 125.416 18.8869L125.116 18.8849Z" fill="#CBCBC5"/>
<path d="M449.385 43.8406C449.385 53.9293 457.115 62.6469 466.888 62.6469C476.662 62.6468 484.392 53.9292 484.392 43.8406V0.379105H506.597V43.8406C506.597 65.9034 489.417 82.4102 467.151 82.5389L466.888 82.5397C444.494 82.5397 427.18 65.99 427.18 43.8406V0.379105H449.385V43.8406Z" fill="#CBCBC5"/>
<path d="M330.451 81.6063H308.928L308.928 1.31445H330.451V81.6063Z" fill="#CBCBC5"/>
<path d="M285.525 0.151596C307.353 0.215543 318.69 18.4994 318.69 41.4602C318.69 64.421 307.353 82.7048 285.525 82.7688C263.598 82.8328 245.551 64.5419 245.551 41.4602C245.551 18.3785 263.598 0.0875615 285.525 0.151596ZM287.03 19.9543C274.81 19.9543 265.519 29.4354 265.519 41.4602C265.519 53.4849 274.81 62.966 287.03 62.966L287.315 62.9641C299.395 62.8176 308.541 53.391 308.541 41.4602C308.541 29.5293 299.395 20.1018 287.315 19.9553L287.03 19.9543Z" fill="#CBCBC5"/>
<path d="M380.454 0.0482941C398.164 0.048313 414.289 10.2917 418.841 27.145L420.036 31.5737H398.977C395.849 24.3363 388.985 19.5659 380.062 19.4575L379.769 19.4555C367.266 19.4555 357.76 29.1564 357.76 41.4594C357.761 53.7624 367.266 63.4624 379.769 63.4624L380.062 63.4614C388.628 63.3573 395.297 58.4266 398.585 51.3461H420.036L418.841 55.7749C414.289 72.6282 398.164 82.8715 380.454 82.8715C356.177 82.8715 337.721 64.6149 337.72 41.4604C337.72 18.3057 356.177 0.0483493 380.454 0.0482941Z" fill="#CBCBC5"/>
<path d="M654.754 81.6057H633.23L633.231 1.31392H654.754V81.6057Z" fill="#CBCBC5"/>
<path d="M609.827 0.151444C631.654 0.215391 642.992 18.4984 642.992 41.4591C642.992 64.4199 631.654 82.7037 609.827 82.7677C587.899 82.8318 569.851 64.5409 569.851 41.4591C569.851 18.3774 587.9 0.0872752 609.827 0.151444ZM611.332 19.9532C599.111 19.9533 589.821 29.4344 589.821 41.4591C589.821 53.4838 599.111 62.9649 611.332 62.9649L611.618 62.9639C623.697 62.8173 632.842 53.3898 632.842 41.4591C632.842 29.5284 623.697 20.1018 611.618 19.9552L611.332 19.9532Z" fill="#CBCBC5"/>
</svg>
