<svg width="191" height="23" viewBox="0 0 191 23" fill="none" xmlns="http://www.w3.org/2000/svg">
<path d="M60.2274 22.4244H54.1572L62.3645 0.361473H68.9388L60.2274 22.4244Z" fill="#2B2B2B"/>
<path d="M53.1241 22.4244H59.1943L50.9871 0.361473H44.4128L53.1241 22.4244Z" fill="#2B2B2B"/>
<path d="M21.0655 22.424H14.2586L0 0.361137H6.80685L21.0655 22.424Z" fill="#2B2B2B"/>
<path d="M21.0658 22.424H15.1064L15.1066 0.361137H21.0658V22.424Z" fill="#2B2B2B"/>
<path d="M5.95937 22.4239H0L0.000263458 0.361137H5.95937V22.4239Z" fill="#2B2B2B"/>
<path d="M155.594 22.4238H142.399L142.4 16.7472H155.594V22.4238Z" fill="#2B2B2B"/>
<path d="M145.158 22.4238H138.756L147.478 0.104454H153.93L145.158 22.4238Z" fill="#2B2B2B"/>
<path d="M190.051 22.4238H184.092L184.092 16.7472H190.051V22.4238Z" fill="#2B2B2B"/>
<path d="M34.418 4.65221e-05C40.7194 0.0177946 45.8818 5.06139 45.8818 11.3946C45.8818 17.7277 40.7194 22.7704 34.418 22.7881C28.0877 22.8058 22.877 17.7612 22.877 11.3946C22.877 5.02794 28.0876 -0.0176718 34.418 4.65221e-05ZM34.3789 5.1895C30.8531 5.18955 28.1729 7.92522 28.1729 11.3946C28.1729 14.8639 30.8532 17.5996 34.3789 17.5997L34.4619 17.5987C37.9467 17.5562 40.5849 14.8366 40.585 11.3946C40.585 7.95244 37.9468 5.23299 34.4619 5.19048L34.3789 5.1895Z" fill="#2B2B2B"/>
<path d="M123.483 12.0471C123.483 14.8193 125.607 17.2147 128.293 17.2147C130.979 17.2147 133.103 14.8193 133.103 12.0471V0.104599H139.204V12.0471C139.204 18.1096 134.484 22.6454 128.365 22.6807L128.293 22.681C122.14 22.681 117.382 18.1334 117.382 12.0471V0.104599H123.483V12.0471Z" fill="#2B2B2B"/>
<path d="M90.804 22.4248H84.8896L84.8898 0.361961H90.804V22.4248Z" fill="#2B2B2B"/>
<path d="M78.46 0.0421681C84.4578 0.0597396 87.5732 5.08449 87.5732 11.3937C87.5731 17.7028 84.4577 22.7267 78.46 22.7443C72.4349 22.7619 67.4758 17.736 67.4756 11.3937C67.4756 5.05125 72.4347 0.0245435 78.46 0.0421681ZM78.8721 5.48357C75.5142 5.48364 72.9609 8.08957 72.9609 11.3937C72.961 14.6978 75.5142 17.3028 78.8721 17.3029H78.9512C82.27 17.2624 84.7831 14.6719 84.7832 11.3937C84.7832 8.11547 82.2701 5.52504 78.9512 5.48455L78.8721 5.48357Z" fill="#2B2B2B"/>
<path d="M104.545 0.0137024C109.411 0.01371 113.842 2.82814 115.093 7.45901L115.422 8.67581H109.634C108.774 6.68729 106.889 5.37663 104.438 5.34671L104.356 5.34573C100.921 5.34583 98.3088 8.01124 98.3086 11.3916C98.3086 14.7722 100.921 17.4384 104.356 17.4385L104.438 17.4375C106.791 17.4088 108.622 16.0543 109.525 14.1094H115.422L115.093 15.3262C113.842 19.9572 109.411 22.7715 104.545 22.7715C97.874 22.7715 92.8027 17.7551 92.8027 11.3926C92.8028 5.03011 97.874 0.0137024 104.545 0.0137024Z" fill="#2B2B2B"/>
<path d="M179.914 22.4239H174L174 0.361038H179.914V22.4239Z" fill="#2B2B2B"/>
<path d="M167.569 0.0417181C173.567 0.0595085 176.683 5.08418 176.683 11.3933C176.682 17.7022 173.567 22.7261 167.569 22.7439C161.544 22.7615 156.584 17.7356 156.584 11.3933C156.584 5.05078 161.544 0.0240669 167.569 0.0417181ZM167.983 5.48312C164.625 5.48313 162.072 8.08907 162.072 11.3933C162.072 14.6974 164.626 17.3025 167.983 17.3025H168.062C171.381 17.2622 173.893 14.6716 173.894 11.3933C173.894 8.11488 171.381 5.52437 168.062 5.4841L167.983 5.48312Z" fill="#2B2B2B"/>
</svg>
